<?xml version="1.0" encoding="us-ascii" standalone="no"?><svg xmlns="http://www.w3.org/2000/svg" xmlns:xlink="http://www.w3.org/1999/xlink" contentStyleType="text/css" height="206px" preserveAspectRatio="none" style="width:284px;height:206px;background:#FFFFFF;" version="1.1" viewBox="0 0 284 206" width="284px" zoomAndPan="magnify"><defs/><g><!--cluster Tomcat--><g id="cluster_Tomcat"><polygon fill="none" points="16,16,26,6,155,6,155,179,145,189,16,189,16,16" style="stroke:#181818;stroke-width:1.0;"/><line style="stroke:#181818;stroke-width:1.0;" x1="145" x2="155" y1="16" y2="6"/><line style="stroke:#181818;stroke-width:1.0;" x1="16" x2="145" y1="16" y2="16"/><line style="stroke:#181818;stroke-width:1.0;" x1="145" x2="145" y1="16" y2="189"/><text fill="#000000" font-family="sans-serif" font-size="14" font-weight="bold" lengthAdjust="spacing" textLength="63" x="50" y="31.9951">Tomcat</text></g><!--entity App1--><g id="elem_App1"><rect fill="#F1F1F1" height="46.2969" rx="2.5" ry="2.5" style="stroke:#181818;stroke-width:0.5;" width="79" x="46" y="46"/><rect fill="#F1F1F1" height="10" style="stroke:#181818;stroke-width:0.5;" width="15" x="105" y="51"/><rect fill="#F1F1F1" height="2" style="stroke:#181818;stroke-width:0.5;" width="4" x="103" y="53"/><rect fill="#F1F1F1" height="2" style="stroke:#181818;stroke-width:0.5;" width="4" x="103" y="57"/><text fill="#000000" font-family="sans-serif" font-size="14" lengthAdjust="spacing" textLength="39" x="61" y="78.9951">App1</text></g><!--entity App2--><g id="elem_App2"><rect fill="#F1F1F1" height="46.2969" rx="2.5" ry="2.5" style="stroke:#181818;stroke-width:0.5;" width="78" x="46.5" y="127"/><rect fill="#F1F1F1" height="10" style="stroke:#181818;stroke-width:0.5;" width="15" x="104.5" y="132"/><rect fill="#F1F1F1" height="2" style="stroke:#181818;stroke-width:0.5;" width="4" x="102.5" y="134"/><rect fill="#F1F1F1" height="2" style="stroke:#181818;stroke-width:0.5;" width="4" x="102.5" y="138"/><text fill="#000000" font-family="sans-serif" font-size="14" lengthAdjust="spacing" textLength="38" x="61.5" y="159.9951">App2</text></g><!--entity Spring3.0--><g id="elem_Spring3.0"><ellipse cx="242" cy="63" fill="#F1F1F1" rx="8" ry="8" style="stroke:#181818;stroke-width:0.5;"/><text fill="#000000" font-family="sans-serif" font-size="14" lengthAdjust="spacing" textLength="70" x="207" y="92.9951">Spring3.0</text></g><!--entity Spring4.0--><g id="elem_Spring4.0"><ellipse cx="242" cy="156" fill="#F1F1F1" rx="8" ry="8" style="stroke:#181818;stroke-width:0.5;"/><text fill="#000000" font-family="sans-serif" font-size="14" lengthAdjust="spacing" textLength="69" x="207.5" y="185.9951">Spring4.0</text></g><!--link App1 to Spring3.0--><g id="link_App1_Spring3.0"><path d="M125.088,67.501 C161.376,66.092 207.0035,64.3196 226.8235,63.5506 " fill="none" id="App1-to-Spring3.0" style="stroke:#181818;stroke-width:1.0;"/><polygon fill="#181818" points="232.819,63.318,223.6707,59.6699,227.8228,63.5119,223.9808,67.6639,232.819,63.318" style="stroke:#181818;stroke-width:1.0;"/></g><!--link App2 to Spring4.0--><g id="link_App2_Spring4.0"><path d="M124.691,151.4831 C160.971,152.8921 206.8525,154.6739 226.7785,155.4477 " fill="none" id="App2-to-Spring4.0" style="stroke:#181818;stroke-width:1.0;"/><polygon fill="#181818" points="232.774,155.6805,223.936,151.3343,227.7778,155.4865,223.6256,159.3282,232.774,155.6805" style="stroke:#181818;stroke-width:1.0;"/></g><!--SRC=[oqbDAr4eoLSeoapFA558oInAJIx9pC_ZoijFILK8oSzDJYnHgEPIK8XsB2WmZ8KoZ6AvQhb00WgwkdOAmGL5cNdfnde6824Z924JFGC0]--></g></svg>