<?xml version="1.0" encoding="us-ascii" standalone="no"?><svg xmlns="http://www.w3.org/2000/svg" xmlns:xlink="http://www.w3.org/1999/xlink" contentStyleType="text/css" height="206px" preserveAspectRatio="none" style="width:273px;height:206px;background:#FFFFFF;" version="1.1" viewBox="0 0 273 206" width="273px" zoomAndPan="magnify"><defs/><g><!--cluster Tomcat--><g id="cluster_Tomcat"><polygon fill="none" points="16,16,26,6,149,6,149,179,139,189,16,189,16,16" style="stroke:#181818;stroke-width:1.0;"/><line style="stroke:#181818;stroke-width:1.0;" x1="139" x2="149" y1="16" y2="6"/><line style="stroke:#181818;stroke-width:1.0;" x1="16" x2="139" y1="16" y2="16"/><line style="stroke:#181818;stroke-width:1.0;" x1="139" x2="139" y1="16" y2="189"/><text fill="#000000" font-family="sans-serif" font-size="14" font-weight="bold" lengthAdjust="spacing" textLength="58" x="49.5" y="31.9951">Tomcat</text></g><!--entity App1--><g id="elem_App1"><rect fill="#F1F1F1" height="46.2969" rx="2.5" ry="2.5" style="stroke:#181818;stroke-width:0.5;" width="76" x="44" y="45.85"/><rect fill="#F1F1F1" height="10" style="stroke:#181818;stroke-width:0.5;" width="15" x="100" y="50.85"/><rect fill="#F1F1F1" height="2" style="stroke:#181818;stroke-width:0.5;" width="4" x="98" y="52.85"/><rect fill="#F1F1F1" height="2" style="stroke:#181818;stroke-width:0.5;" width="4" x="98" y="56.85"/><text fill="#000000" font-family="sans-serif" font-size="14" lengthAdjust="spacing" textLength="36" x="59" y="78.8451">App1</text></g><!--entity App2--><g id="elem_App2"><rect fill="#F1F1F1" height="46.2969" rx="2.5" ry="2.5" style="stroke:#181818;stroke-width:0.5;" width="76" x="44" y="126.85"/><rect fill="#F1F1F1" height="10" style="stroke:#181818;stroke-width:0.5;" width="15" x="100" y="131.85"/><rect fill="#F1F1F1" height="2" style="stroke:#181818;stroke-width:0.5;" width="4" x="98" y="133.85"/><rect fill="#F1F1F1" height="2" style="stroke:#181818;stroke-width:0.5;" width="4" x="98" y="137.85"/><text fill="#000000" font-family="sans-serif" font-size="14" lengthAdjust="spacing" textLength="36" x="59" y="159.8451">App2</text></g><!--entity Spring3.0--><g id="elem_Spring3.0"><ellipse cx="233" cy="63" fill="#F1F1F1" rx="8" ry="8" style="stroke:#181818;stroke-width:0.5;"/><text fill="#000000" font-family="sans-serif" font-size="14" lengthAdjust="spacing" textLength="66" x="200" y="92.9951">Spring3.0</text></g><!--entity Spring4.0--><g id="elem_Spring4.0"><ellipse cx="233" cy="156" fill="#F1F1F1" rx="8" ry="8" style="stroke:#181818;stroke-width:0.5;"/><text fill="#000000" font-family="sans-serif" font-size="14" lengthAdjust="spacing" textLength="66" x="200" y="185.9951">Spring4.0</text></g><!--link App1 to Spring3.0--><g id="link_App1_Spring3.0"><path d="M120.21,67.5 C155.21,66.09 199.0049,64.3316 218.1149,63.5616 " fill="none" id="App1-to-Spring3.0" style="stroke:#181818;stroke-width:1.0;"/><polygon fill="#181818" points="224.11,63.32,214.9563,59.6856,219.1141,63.5213,215.2783,67.6791,224.11,63.32" style="stroke:#181818;stroke-width:1.0;"/></g><!--link App2 to Spring4.0--><g id="link_App2_Spring4.0"><path d="M120.21,151.5 C155.21,152.91 199.0049,154.6684 218.1149,155.4384 " fill="none" id="App2-to-Spring4.0" style="stroke:#181818;stroke-width:1.0;"/><polygon fill="#181818" points="224.11,155.68,215.2783,151.3209,219.1141,155.4787,214.9563,159.3144,224.11,155.68" style="stroke:#181818;stroke-width:1.0;"/></g><!--SRC=[oqbDAr4eoLSeoapFA558oInAJIx9pC_ZoijFILK8oSzDJYnHgEPIK8XsB2WmZ8KoZ6AvQhb00WgwkdOAmGL5cNdfnde6824Z924JFGC0]--></g></svg>