<?xml version="1.0" encoding="us-ascii" standalone="no"?><svg xmlns="http://www.w3.org/2000/svg" xmlns:xlink="http://www.w3.org/1999/xlink" contentStyleType="text/css" height="377px" preserveAspectRatio="none" style="width:656px;height:377px;background:#FFFFFF;" version="1.1" viewBox="0 0 656 377" width="656px" zoomAndPan="magnify"><defs/><g><!--entity BootstrapClassLoader--><g id="elem_BootstrapClassLoader"><rect fill="#F1F1F1" height="46.2969" rx="2.5" ry="2.5" style="stroke:#181818;stroke-width:0.5;" width="198" x="226.5" y="7"/><rect fill="#F1F1F1" height="10" style="stroke:#181818;stroke-width:0.5;" width="15" x="404.5" y="12"/><rect fill="#F1F1F1" height="2" style="stroke:#181818;stroke-width:0.5;" width="4" x="402.5" y="14"/><rect fill="#F1F1F1" height="2" style="stroke:#181818;stroke-width:0.5;" width="4" x="402.5" y="18"/><text fill="#000000" font-family="sans-serif" font-size="14" lengthAdjust="spacing" textLength="158" x="241.5" y="39.9951">BootstrapClassLoader</text></g><!--entity ExtClassLoader--><g id="elem_ExtClassLoader"><rect fill="#F1F1F1" height="46.2969" rx="2.5" ry="2.5" style="stroke:#181818;stroke-width:0.5;" width="149" x="251" y="113"/><rect fill="#F1F1F1" height="10" style="stroke:#181818;stroke-width:0.5;" width="15" x="380" y="118"/><rect fill="#F1F1F1" height="2" style="stroke:#181818;stroke-width:0.5;" width="4" x="378" y="120"/><rect fill="#F1F1F1" height="2" style="stroke:#181818;stroke-width:0.5;" width="4" x="378" y="124"/><text fill="#000000" font-family="sans-serif" font-size="14" lengthAdjust="spacing" textLength="109" x="266" y="145.9951">ExtClassLoader</text></g><!--entity AppClassLoader--><g id="elem_AppClassLoader"><rect fill="#F1F1F1" height="46.2969" rx="2.5" ry="2.5" style="stroke:#181818;stroke-width:0.5;" width="155" x="248" y="219"/><rect fill="#F1F1F1" height="10" style="stroke:#181818;stroke-width:0.5;" width="15" x="383" y="224"/><rect fill="#F1F1F1" height="2" style="stroke:#181818;stroke-width:0.5;" width="4" x="381" y="226"/><rect fill="#F1F1F1" height="2" style="stroke:#181818;stroke-width:0.5;" width="4" x="381" y="230"/><text fill="#000000" font-family="sans-serif" font-size="14" lengthAdjust="spacing" textLength="115" x="263" y="251.9951">AppClassLoader</text></g><!--entity CustomClassLoader1--><g id="elem_CustomClassLoader1"><rect fill="#F1F1F1" height="46.2969" rx="2.5" ry="2.5" style="stroke:#181818;stroke-width:0.5;" width="189" x="7" y="325"/><rect fill="#F1F1F1" height="10" style="stroke:#181818;stroke-width:0.5;" width="15" x="176" y="330"/><rect fill="#F1F1F1" height="2" style="stroke:#181818;stroke-width:0.5;" width="4" x="174" y="332"/><rect fill="#F1F1F1" height="2" style="stroke:#181818;stroke-width:0.5;" width="4" x="174" y="336"/><text fill="#000000" font-family="sans-serif" font-size="14" lengthAdjust="spacing" textLength="149" x="22" y="357.9951">CustomClassLoader1</text></g><!--entity CustomClassLoader2--><g id="elem_CustomClassLoader2"><rect fill="#F1F1F1" height="46.2969" rx="2.5" ry="2.5" style="stroke:#181818;stroke-width:0.5;" width="188" x="231.5" y="325"/><rect fill="#F1F1F1" height="10" style="stroke:#181818;stroke-width:0.5;" width="15" x="399.5" y="330"/><rect fill="#F1F1F1" height="2" style="stroke:#181818;stroke-width:0.5;" width="4" x="397.5" y="332"/><rect fill="#F1F1F1" height="2" style="stroke:#181818;stroke-width:0.5;" width="4" x="397.5" y="336"/><text fill="#000000" font-family="sans-serif" font-size="14" lengthAdjust="spacing" textLength="148" x="246.5" y="357.9951">CustomClassLoader2</text></g><!--entity CustomClassLoader...--><g id="elem_CustomClassLoader..."><rect fill="#F1F1F1" height="46.2969" rx="2.5" ry="2.5" style="stroke:#181818;stroke-width:0.5;" width="195" x="455" y="325"/><rect fill="#F1F1F1" height="10" style="stroke:#181818;stroke-width:0.5;" width="15" x="630" y="330"/><rect fill="#F1F1F1" height="2" style="stroke:#181818;stroke-width:0.5;" width="4" x="628" y="332"/><rect fill="#F1F1F1" height="2" style="stroke:#181818;stroke-width:0.5;" width="4" x="628" y="336"/><text fill="#000000" font-family="sans-serif" font-size="14" lengthAdjust="spacing" textLength="155" x="470" y="357.9951">CustomClassLoader...</text></g><!--reverse link BootstrapClassLoader to ExtClassLoader--><g id="link_BootstrapClassLoader_ExtClassLoader"><path d="M325.5,59.056 C325.5,76.705 325.5,95.335 325.5,112.976 " fill="none" id="BootstrapClassLoader-backto-ExtClassLoader" style="stroke:#181818;stroke-width:1.0;"/><polygon fill="#181818" points="325.5,53.056,321.5,62.056,325.5,58.056,329.5,62.056,325.5,53.056" style="stroke:#181818;stroke-width:1.0;"/></g><!--reverse link ExtClassLoader to AppClassLoader--><g id="link_ExtClassLoader_AppClassLoader"><path d="M325.5,165.056 C325.5,182.705 325.5,201.335 325.5,218.976 " fill="none" id="ExtClassLoader-backto-AppClassLoader" style="stroke:#181818;stroke-width:1.0;"/><polygon fill="#181818" points="325.5,159.056,321.5,168.056,325.5,164.056,329.5,168.056,325.5,159.056" style="stroke:#181818;stroke-width:1.0;"/></g><!--reverse link AppClassLoader to CustomClassLoader1--><g id="link_AppClassLoader_CustomClassLoader1"><path d="M272.5529,267.5827 C234.5399,285.2316 186.932,307.3353 148.936,324.9761 " fill="none" id="AppClassLoader-backto-CustomClassLoader1" style="stroke:#181818;stroke-width:1.0;"/><polygon fill="#181818" points="277.995,265.056,268.1475,265.218,273.46,267.1616,271.5164,272.474,277.995,265.056" style="stroke:#181818;stroke-width:1.0;"/></g><!--reverse link AppClassLoader to CustomClassLoader2--><g id="link_AppClassLoader_CustomClassLoader2"><path d="M325.5,271.056 C325.5,288.7049 325.5,307.3353 325.5,324.9761 " fill="none" id="AppClassLoader-backto-CustomClassLoader2" style="stroke:#181818;stroke-width:1.0;"/><polygon fill="#181818" points="325.5,265.056,321.5,274.056,325.5,270.056,329.5,274.056,325.5,265.056" style="stroke:#181818;stroke-width:1.0;"/></g><!--reverse link AppClassLoader to CustomClassLoader...--><g id="link_AppClassLoader_CustomClassLoader..."><path d="M379.0958,267.5551 C417.6188,285.204 465.924,307.3353 504.429,324.9761 " fill="none" id="AppClassLoader-backto-CustomClassLoader..." style="stroke:#181818;stroke-width:1.0;"/><polygon fill="#181818" points="373.641,265.056,380.1571,272.4411,378.1867,267.1385,383.4892,265.1681,373.641,265.056" style="stroke:#181818;stroke-width:1.0;"/></g><!--SRC=[YtRApoyfBYbAB73EIImkzibFJ4ajYkMATgqeGHLmB41JuLnQN9AVYoHcY4tG29kWdfvUB1SsYnLiT7KLKAtcGkM2LQ2wXGkL2rQ1wJYYL1aHfGheV000]--></g></svg>