<?xml version="1.0" encoding="us-ascii" standalone="no"?><svg xmlns="http://www.w3.org/2000/svg" xmlns:xlink="http://www.w3.org/1999/xlink" contentStyleType="text/css" height="140px" preserveAspectRatio="none" style="width:409px;height:140px;background:#FFFFFF;" version="1.1" viewBox="0 0 409 140" width="409px" zoomAndPan="magnify"><defs/><g><!--entity App--><g id="elem_App"><rect fill="#F1F1F1" height="46.2969" rx="2.5" ry="2.5" style="stroke:#181818;stroke-width:0.5;" width="70" x="7" y="43"/><rect fill="#F1F1F1" height="10" style="stroke:#181818;stroke-width:0.5;" width="15" x="57" y="48"/><rect fill="#F1F1F1" height="2" style="stroke:#181818;stroke-width:0.5;" width="4" x="55" y="50"/><rect fill="#F1F1F1" height="2" style="stroke:#181818;stroke-width:0.5;" width="4" x="55" y="54"/><text fill="#000000" font-family="sans-serif" font-size="14" lengthAdjust="spacing" textLength="30" x="22" y="75.9951">App</text></g><!--entity LibA--><g id="elem_LibA"><rect fill="#F1F1F1" height="46.2969" rx="2.5" ry="2.5" style="stroke:#181818;stroke-width:0.5;" width="72" x="138" y="7"/><rect fill="#F1F1F1" height="10" style="stroke:#181818;stroke-width:0.5;" width="15" x="190" y="12"/><rect fill="#F1F1F1" height="2" style="stroke:#181818;stroke-width:0.5;" width="4" x="188" y="14"/><rect fill="#F1F1F1" height="2" style="stroke:#181818;stroke-width:0.5;" width="4" x="188" y="18"/><text fill="#000000" font-family="sans-serif" font-size="14" lengthAdjust="spacing" textLength="32" x="153" y="39.9951">LibA</text></g><!--entity LibB--><g id="elem_LibB"><rect fill="#F1F1F1" height="46.2969" rx="2.5" ry="2.5" style="stroke:#181818;stroke-width:0.5;" width="72" x="138" y="88"/><rect fill="#F1F1F1" height="10" style="stroke:#181818;stroke-width:0.5;" width="15" x="190" y="93"/><rect fill="#F1F1F1" height="2" style="stroke:#181818;stroke-width:0.5;" width="4" x="188" y="95"/><rect fill="#F1F1F1" height="2" style="stroke:#181818;stroke-width:0.5;" width="4" x="188" y="99"/><text fill="#000000" font-family="sans-serif" font-size="14" lengthAdjust="spacing" textLength="32" x="153" y="120.9951">LibB</text></g><!--entity LibC--><g id="elem_LibC"><rect fill="#F1F1F1" height="46.2969" rx="2.5" ry="2.5" style="stroke:#181818;stroke-width:0.5;" width="72" x="331" y="45"/><rect fill="#F1F1F1" height="10" style="stroke:#181818;stroke-width:0.5;" width="15" x="383" y="50"/><rect fill="#F1F1F1" height="2" style="stroke:#181818;stroke-width:0.5;" width="4" x="381" y="52"/><rect fill="#F1F1F1" height="2" style="stroke:#181818;stroke-width:0.5;" width="4" x="381" y="56"/><text fill="#000000" font-family="sans-serif" font-size="14" lengthAdjust="spacing" textLength="32" x="346" y="77.9951">LibC</text></g><!--link App to LibA--><g id="link_App_LibA"><path d="M77.156,56.5414 C95.8125,51.375 113.0996,46.5876 131.9306,41.373 " fill="none" id="App-to-LibA" style="stroke:#181818;stroke-width:1.0;"/><polygon fill="#181818" points="137.713,39.7718,127.9719,38.3187,132.8943,41.1062,130.1069,46.0286,137.713,39.7718" style="stroke:#181818;stroke-width:1.0;"/></g><!--link App to LibB--><g id="link_App_LibB"><path d="M77.156,77.8232 C95.8125,84.2813 113.2121,90.3044 132.0431,96.8227 " fill="none" id="App-to-LibB" style="stroke:#181818;stroke-width:1.0;"/><polygon fill="#181818" points="137.713,98.7853,130.5165,92.0614,132.9881,97.1498,127.8997,99.6213,137.713,98.7853" style="stroke:#181818;stroke-width:1.0;"/></g><!--link LibA to LibC--><g id="link_LibA_LibC"><path d="M210.032,36.9698 C244.387,43.8048 290.5923,52.9975 324.9823,59.8394 " fill="none" id="LibA-to-LibC" style="stroke:#181818;stroke-width:1.0;"/><polygon fill="#181818" points="330.867,61.0102,322.8205,55.331,325.9631,60.0346,321.2595,63.1772,330.867,61.0102" style="stroke:#181818;stroke-width:1.0;"/><text fill="#000000" font-family="sans-serif" font-size="13" lengthAdjust="spacing" textLength="59" x="241" y="40.0669">version 1</text></g><!--link LibB to LibC--><g id="link_LibB_LibC"><path d="M210.032,103.1131 C244.387,95.3788 290.6235,84.9695 325.0135,77.2274 " fill="none" id="LibB-to-LibC" style="stroke:#181818;stroke-width:1.0;"/><polygon fill="#181818" points="330.867,75.9096,321.2082,73.9839,325.9891,77.0077,322.9653,81.7886,330.867,75.9096" style="stroke:#181818;stroke-width:1.0;"/><text fill="#000000" font-family="sans-serif" font-size="13" lengthAdjust="spacing" textLength="59" x="241" y="80.0669">version 2</text></g><!--SRC=[oqbDAr4eoLSeoapFA558oInAJIx9pC_ZYdOiA8XLqDMrKuZsoKnoZ4KJS08AWCNX8iwnLcMfHSL0lGg6N10bsEIC0000]--></g></svg>